<?xml version="1.0" encoding="UTF-8" standalone="no"?>
<!-- Created with Inkscape (http://www.inkscape.org/) -->

<svg
   xmlns:dc="http://purl.org/dc/elements/1.1/"
   xmlns:cc="http://creativecommons.org/ns#"
   xmlns:rdf="http://www.w3.org/1999/02/22-rdf-syntax-ns#"
   xmlns:svg="http://www.w3.org/2000/svg"
   xmlns="http://www.w3.org/2000/svg"
   xmlns:sodipodi="http://sodipodi.sourceforge.net/DTD/sodipodi-0.dtd"
   xmlns:inkscape="http://www.inkscape.org/namespaces/inkscape"
   width="1024"
   height="1024"
   id="svg2"
   sodipodi:version="0.32"
   inkscape:version="0.48.4 r9939"
   version="1.0"
   sodipodi:docname="ilo_fond.svg"
   inkscape:output_extension="org.inkscape.output.svg.inkscape"
   inkscape:export-filename="D:\BoB\Ilo\ilo 2008\logo_ilo.png"
   inkscape:export-xdpi="61.53611"
   inkscape:export-ydpi="61.53611">
  <defs
     id="defs4">
    <inkscape:perspective
       sodipodi:type="inkscape:persp3d"
       inkscape:vp_x="0 : 526.18109 : 1"
       inkscape:vp_y="0 : 1000 : 0"
       inkscape:vp_z="744.09448 : 526.18109 : 1"
       inkscape:persp3d-origin="372.04724 : 350.78739 : 1"
       id="perspective10" />
    <inkscape:perspective
       id="perspective2390"
       inkscape:persp3d-origin="372.04724 : 350.78739 : 1"
       inkscape:vp_z="744.09448 : 526.18109 : 1"
       inkscape:vp_y="0 : 1000 : 0"
       inkscape:vp_x="0 : 526.18109 : 1"
       sodipodi:type="inkscape:persp3d" />
    <filter
       inkscape:collect="always"
       id="filter3174">
      <feGaussianBlur
         inkscape:collect="always"
         stdDeviation="0.5816772"
         id="feGaussianBlur3176" />
    </filter>
    <filter
       inkscape:collect="always"
       id="filter3180">
      <feGaussianBlur
         inkscape:collect="always"
         stdDeviation="0.5740956"
         id="feGaussianBlur3182" />
    </filter>
    <filter
       inkscape:collect="always"
       id="filter3184">
      <feGaussianBlur
         inkscape:collect="always"
         stdDeviation="0.57134465"
         id="feGaussianBlur3186" />
    </filter>
    <filter
       inkscape:collect="always"
       id="filter3198">
      <feGaussianBlur
         inkscape:collect="always"
         stdDeviation="0.44223389"
         id="feGaussianBlur3200" />
    </filter>
    <filter
       inkscape:collect="always"
       id="filter3242">
      <feGaussianBlur
         inkscape:collect="always"
         stdDeviation="0.59371661"
         id="feGaussianBlur3244" />
    </filter>
    <filter
       inkscape:collect="always"
       id="filter3246">
      <feGaussianBlur
         inkscape:collect="always"
         stdDeviation="0.66016161"
         id="feGaussianBlur3248" />
    </filter>
  </defs>
  <sodipodi:namedview
     id="base"
     pagecolor="#1f2bc0"
     bordercolor="#666666"
     borderopacity="1.0"
     inkscape:pageopacity="0.2745098"
     inkscape:pageshadow="2"
     inkscape:zoom="0.7734375"
     inkscape:cx="522.71771"
     inkscape:cy="514.31442"
     inkscape:document-units="px"
     inkscape:current-layer="layer1"
     showgrid="false"
     showguides="true"
     inkscape:guide-bbox="true"
     inkscape:showpageshadow="false"
     inkscape:window-width="1680"
     inkscape:window-height="1003"
     inkscape:window-x="0"
     inkscape:window-y="25"
     inkscape:window-maximized="1" />
  <metadata
     id="metadata7">
    <rdf:RDF>
      <cc:Work
         rdf:about="">
        <dc:format>image/svg+xml</dc:format>
        <dc:type
           rdf:resource="http://purl.org/dc/dcmitype/StillImage" />
        <dc:title></dc:title>
      </cc:Work>
    </rdf:RDF>
  </metadata>
  <g
     inkscape:label="Calque 1"
     inkscape:groupmode="layer"
     id="layer1">
    <g
       id="g3015">
      <path
         transform="matrix(3.8560914,0,0,3.8738009,-652.74854,-744.9057)"
         d="m 371.05754,441.0736 -77.47128,-55.69973 -73.29286,55.11051 29.03365,-90.89173 -75.06195,-52.67556 95.41506,-0.47445 26.90202,-87.6658 29.93611,90.5985 91.6883,-1.50488 -76.91352,56.46741 z"
         inkscape:randomized="0"
         inkscape:rounded="0"
         inkscape:flatsided="false"
         sodipodi:arg2="1.6223481"
         sodipodi:arg1="0.94638598"
         sodipodi:r2="48.413715"
         sodipodi:r1="128.24861"
         sodipodi:cy="337.02448"
         sodipodi:cx="296.08096"
         sodipodi:sides="5"
         id="path3213"
         style="fill:#9ad787;fill-opacity:1;fill-rule:nonzero;stroke:none"
         sodipodi:type="star" />
      <path
         transform="matrix(3.8560914,0,0,3.8738009,-776.65562,-1399.8873)"
         sodipodi:nodetypes="ccccczzcc"
         id="path2396"
         d="m 202.63906,448.86135 21.21934,1.56626 -0.13566,93.47334 -20.66425,-0.0464 -0.15861,-3.35995 c 6.22381,0.14936 12.53343,-6.4311 12.53343,-12.62844 l 0,-62.47182 c 0,-6.42552 -3.32332,-12.247 -12.91717,-13.5422 l 0.12292,-2.99077 z"
         style="fill:#000000;fill-opacity:1;fill-rule:evenodd;stroke:none;filter:url(#filter3174)"
         inkscape:connector-curvature="0" />
      <path
         transform="matrix(3.8560914,0,0,3.8738009,-776.65562,-1399.8873)"
         sodipodi:nodetypes="ccczzcccc"
         id="path2398"
         d="m 229.34381,450.8836 19.9231,-1.66176 0.11609,2.74947 c -6.8069,0.28401 -11.74055,3.69886 -11.76374,11.03669 l -0.20164,63.79825 c -0.0233,7.37729 3.24147,13.77094 12.0662,15.03543 l -1e-5,2.05927 -20.08498,-0.318 -0.055,-92.69935 z"
         style="fill:#000000;fill-opacity:1;fill-rule:evenodd;stroke:none;filter:url(#filter3180)"
         inkscape:connector-curvature="0" />
      <path
         transform="matrix(3.8560914,0,0,3.8738009,-776.65562,-1399.8873)"
         sodipodi:nodetypes="ccccczzcc"
         id="path2400"
         d="m 262.86956,449.05996 19.00364,1.955 -0.27797,92.80016 -17.3724,0.29323 -0.0856,-1.93687 c 4.71219,-1.96773 9.20102,-5.25255 9.22226,-12.15778 l 0.20769,-67.51584 c 0.0149,-4.85741 -3.37789,-9.11711 -10.91457,-10.92379 l 0.2169,-2.51411 z"
         style="fill:#000000;fill-opacity:1;fill-rule:evenodd;stroke:none;filter:url(#filter3184)"
         inkscape:connector-curvature="0" />
      <path
         transform="matrix(3.8560914,0,0,3.8738009,-776.65562,-1399.8873)"
         sodipodi:nodetypes="ccczczzccccc"
         id="path2402"
         d="m 287.15175,451.27766 20.10946,-2.04056 -0.17111,2.04691 c -4.96,2.44564 -11.16155,4.67527 -11.2078,13.34601 l -0.34825,65.29209 c 0.30559,3.35507 0.0944,7.49892 3.43692,7.54505 l 29.43812,0.40631 c 9.3669,0.12929 16.23073,-5.93182 19.14104,-14.68113 l 3.17087,-0.12213 -7.93006,20.77227 -55.17485,0.1498 -0.46434,-92.71462 z"
         style="fill:#000000;fill-opacity:1;fill-rule:evenodd;stroke:none;filter:url(#filter3242)"
         inkscape:connector-curvature="0" />
      <path
         transform="matrix(3.8560914,0,0,3.8738009,-776.65562,-1399.8873)"
         sodipodi:nodetypes="ccccc"
         id="path3196"
         d="m 375.17783,459.33652 c -18.26577,13.09095 -24.25902,50.87744 -1.44435,72.02368 l 0.0842,-3.54744 c -11.51924,-26.39457 -7.75668,-47.64372 1.53115,-65.65253 l -0.17101,-2.82371 z"
         style="fill:#000000;fill-opacity:1;fill-rule:evenodd;stroke:none;filter:url(#filter3198)"
         inkscape:connector-curvature="0" />
      <path
         transform="matrix(-3.8560914,0,0,3.8738009,2402.6288,-1394.1242)"
         style="fill:#000000;fill-opacity:1;fill-rule:evenodd;stroke:none;filter:url(#filter3198)"
         d="m 375.17783,459.33652 c -18.26577,13.09095 -24.25902,50.87744 -1.44435,72.02368 l 0.0842,-3.54744 c -11.51924,-26.39457 -7.75668,-47.64372 1.53115,-65.65253 l -0.17101,-2.82371 z"
         id="path3207"
         sodipodi:nodetypes="ccccc"
         inkscape:connector-curvature="0" />
      <path
         sodipodi:nodetypes="ccccccccccccc"
         id="path3219"
         d="m 456.96054,477.09099 80.4831,0.39687 -0.0413,18.98469 -57.14715,-0.0628 0.11452,22.64732 53.49837,0.12552 -0.0933,20.05939 -53.58197,0.18827 -0.0521,26.29164 61.63715,0.4384 0,19.15172 -85.08739,0.0415 0.26992,-108.26263 z"
         style="fill:#ffffff;fill-opacity:0.99578091;fill-rule:evenodd;stroke:none"
         inkscape:connector-curvature="0" />
      <path
         transform="matrix(3.8560914,0,0,3.8738009,-776.65562,-1399.8873)"
         sodipodi:nodetypes="czzzzzzzzzzzzzzzzzzczzzzzzzzzzzzzzzz"
         id="path3221"
         d="m 402.96875,447.75 c -4.66146,0.77604 -7.35417,2.10938 -11.0625,4.84375 -3.70833,2.73437 -8.34375,6.82292 -11.1875,11.5625 -2.84375,4.73958 -4.66667,11.70313 -5.875,16.875 -1.20833,5.17187 -1.43229,8.66146 -1.375,14.15625 0.0573,5.49479 0.54167,13.32292 1.71875,18.8125 1.17708,5.48958 3.04167,10.09896 5.34375,14.125 2.30208,4.02604 4.78646,7.27083 8.46875,10.03125 3.68229,2.76042 7.99479,5.5 13.625,6.53125 5.63021,1.03125 15.04167,0.74479 20.15625,-0.34375 5.11458,-1.08854 7.68061,-3.05377 11.01915,-5.6996 3.33854,-2.64583 6.45481,-5.60248 9.0121,-10.1754 2.55729,-4.57292 4.78125,-11.97396 5.84375,-17.75 1.0625,-5.77604 0.76042,-11.01042 0.53125,-16.90625 -0.22917,-5.89583 -0.5,-13.00521 -1.90625,-18.46875 -1.40625,-5.46354 -3.94271,-10.54687 -6.53125,-14.3125 -2.58854,-3.76563 -5.52083,-6.09896 -9,-8.28125 -3.47917,-2.18229 -7.07812,-3.97917 -11.875,-4.8125 -4.79688,-0.83333 -12.24479,-0.96354 -16.90625,-0.1875 z m 6.875,7.0625 c 3.9375,-0.0573 8.68229,0.125 12.59375,1.5625 3.91146,1.4375 8,3.86979 10.875,7.0625 2.875,3.19271 4.99479,7.08854 6.375,12.09375 1.38021,5.00521 1.72917,11.52604 1.90625,17.9375 0.17708,6.41146 0.25,14.72396 -0.84375,20.53125 -1.09375,5.80729 -3.05813,9.41567 -5.4748,13.09275 -2.41667,3.67708 -5.20228,6.57123 -9.0252,8.2379 -3.82292,1.66667 -9.41146,3.03914 -14.15625,2.98185 -4.74479,-0.0573 -10.20313,-0.66667 -14.3125,-2.59375 -4.10937,-1.92708 -7.72917,-5.11979 -10.34375,-8.96875 -2.61458,-3.84896 -4.42188,-8.57812 -5.34375,-14.125 -0.92187,-5.54688 -1.73567,-10.91443 -1.5638,-16.77901 0.17187,-5.86458 1.47526,-13.49182 2.59505,-18.40849 1.11979,-4.91667 3.86122,-9.52772 6.4758,-12.98085 2.61458,-3.45313 6.16314,-5.96791 9.6996,-7.49395 3.53646,-1.52604 6.60585,-2.09291 10.54335,-2.1502 z"
         style="fill:#000000;fill-opacity:1;fill-rule:evenodd;stroke:#000000;stroke-width:1px;stroke-linecap:butt;stroke-linejoin:miter;stroke-opacity:1;filter:url(#filter3246)"
         inkscape:connector-curvature="0" />
    </g>
  </g>
</svg>
